<svg width="555" height="268" viewBox="0 0 555 268" fill="none" xmlns="http://www.w3.org/2000/svg">
<path d="M40.65 70.7L37.12 86.32L37.46 86.66C40.15 80.61 44.2 76.06 49.63 72.97C55.06 69.89 60.96 68.35 67.35 68.35C69.81 68.35 72.27 68.52 74.74 68.85L69.87 92.02C68.19 91.68 66.51 91.35 64.83 91.01C63.15 90.67 61.47 90.51 59.79 90.51C55.2 90.51 51.31 91.29 48.12 92.86C44.93 94.43 42.24 96.55 40.06 99.24C37.88 101.93 36.14 104.98 34.85 108.39C33.56 111.81 32.53 115.36 31.74 119.05L23.68 157.5H0L17.97 70.69H40.64L40.65 70.7Z" fill="black"/>
<path d="M88.68 121.42V124.95C88.68 129.99 90.25 134.08 93.38 137.21C96.51 140.34 101.33 141.91 107.82 141.91C110.17 141.91 112.27 141.55 114.12 140.82C115.97 140.09 117.59 139.17 118.99 138.05C120.39 136.93 121.62 135.64 122.68 134.19C123.74 132.74 124.72 131.34 125.62 129.99H149.46C147.56 134.92 145.32 139.23 142.74 142.92C140.16 146.61 137.09 149.72 133.5 152.24C129.92 154.76 125.75 156.64 120.99 157.87C116.23 159.1 110.72 159.72 104.45 159.72C98.63 159.72 93.34 158.94 88.58 157.37C83.82 155.8 79.76 153.42 76.41 150.23C73.05 147.04 70.45 143.09 68.6 138.39C66.75 133.69 65.83 128.2 65.83 121.93C65.83 114.99 66.95 108.3 69.19 101.86C71.43 95.42 74.59 89.71 78.68 84.73C82.76 79.75 87.77 75.78 93.71 72.81C99.64 69.85 106.3 68.36 113.69 68.36C119.74 68.36 125.25 69.14 130.23 70.71C135.21 72.28 139.47 74.66 142.99 77.85C146.52 81.04 149.26 85.02 151.22 89.77C153.18 94.53 154.16 100.04 154.16 106.31C154.16 110.57 153.71 115.1 152.82 119.91H88.84C88.73 120.47 88.67 120.97 88.67 121.42H88.68ZM130.57 98.16C130.18 95.98 129.42 93.99 128.3 92.2C127.18 90.41 125.56 88.98 123.43 87.92C121.3 86.86 118.5 86.32 115.03 86.32C111.56 86.32 108.7 86.82 106.13 87.83C103.55 88.84 101.32 90.18 99.41 91.86C97.51 93.54 95.91 95.5 94.62 97.74C93.33 99.98 92.24 102.33 91.35 104.79H131.15C131.15 102.55 130.95 100.34 130.56 98.16H130.57Z" fill="black"/>
<path d="M23 178.53V190.28H23.34C26.47 185.8 30.25 182.33 34.67 179.87C39.09 177.41 44.16 176.18 49.87 176.18C55.58 176.18 60.36 177.25 64.9 179.37C69.43 181.5 72.88 185.25 75.23 190.62C77.8 186.82 81.3 183.46 85.73 180.54C90.15 177.63 95.39 176.17 101.43 176.17C106.02 176.17 110.27 176.73 114.19 177.85C118.11 178.97 121.47 180.76 124.26 183.22C127.06 185.68 129.24 188.9 130.81 192.88C132.38 196.86 133.16 201.64 133.16 207.24V265.34H109.32V216.14C109.32 213.23 109.21 210.49 108.98 207.91C108.75 205.34 108.14 203.1 107.13 201.19C106.12 199.29 104.64 197.78 102.68 196.66C100.72 195.54 98.06 194.98 94.7 194.98C91.34 194.98 88.63 195.63 86.56 196.91C84.49 198.2 82.87 199.88 81.69 201.95C80.51 204.02 79.73 206.37 79.34 209C78.95 211.63 78.75 214.29 78.75 216.98V265.34H54.91V216.64C54.91 214.07 54.85 211.52 54.74 209C54.63 206.48 54.15 204.16 53.31 202.03C52.47 199.9 51.07 198.2 49.11 196.91C47.15 195.63 44.27 194.98 40.46 194.98C39.34 194.98 37.86 195.23 36.01 195.74C34.16 196.24 32.37 197.2 30.64 198.59C28.9 199.99 27.42 202.01 26.19 204.64C24.96 207.27 24.34 210.71 24.34 214.97V265.35H0.5V178.54H23V178.53Z" fill="black"/>
<path d="M150.95 205.23C151.29 199.63 152.68 194.99 155.15 191.29C157.61 187.6 160.75 184.63 164.55 182.39C168.35 180.15 172.64 178.56 177.4 177.6C182.16 176.65 186.94 176.17 191.76 176.17C196.13 176.17 200.55 176.48 205.03 177.09C209.51 177.71 213.59 178.91 217.29 180.7C220.98 182.49 224.01 184.98 226.36 188.17C228.71 191.36 229.89 195.59 229.89 200.85V246.02C229.89 249.94 230.11 253.69 230.56 257.27C231.01 260.85 231.79 263.54 232.91 265.33H208.73C208.28 263.99 207.92 262.62 207.64 261.22C207.36 259.82 207.16 258.39 207.05 256.94C203.24 260.86 198.76 263.6 193.62 265.17C188.47 266.74 183.21 267.52 177.84 267.52C173.7 267.52 169.84 267.02 166.25 266.01C162.67 265 159.53 263.44 156.85 261.31C154.16 259.19 152.06 256.5 150.55 253.25C149.04 250 148.28 246.14 148.28 241.66C148.28 236.74 149.15 232.68 150.88 229.49C152.61 226.3 154.85 223.76 157.6 221.85C160.34 219.95 163.48 218.52 167 217.57C170.53 216.62 174.08 215.86 177.66 215.3C181.24 214.74 184.77 214.29 188.24 213.96C191.71 213.62 194.79 213.12 197.48 212.45C200.17 211.78 202.29 210.8 203.86 209.51C205.43 208.22 206.15 206.35 206.04 203.88C206.04 201.31 205.62 199.26 204.78 197.75C203.94 196.24 202.82 195.06 201.42 194.22C200.02 193.38 198.4 192.82 196.55 192.54C194.7 192.26 192.71 192.12 190.59 192.12C185.89 192.12 182.19 193.13 179.51 195.14C176.82 197.16 175.25 200.51 174.81 205.22H150.97L150.95 205.23ZM206.03 222.87C205.02 223.77 203.76 224.47 202.25 224.97C200.74 225.47 199.12 225.89 197.38 226.23C195.64 226.57 193.82 226.85 191.92 227.07C190.02 227.3 188.11 227.57 186.21 227.91C184.42 228.25 182.66 228.69 180.92 229.25C179.18 229.81 177.67 230.57 176.39 231.52C175.1 232.47 174.07 233.68 173.28 235.13C172.5 236.59 172.1 238.43 172.1 240.67C172.1 242.91 172.49 244.59 173.28 246.04C174.06 247.5 175.13 248.64 176.47 249.48C177.81 250.32 179.38 250.91 181.17 251.24C182.96 251.58 184.81 251.74 186.71 251.74C191.41 251.74 195.05 250.96 197.62 249.39C200.19 247.82 202.1 245.95 203.33 243.76C204.56 241.58 205.32 239.37 205.6 237.13C205.88 234.89 206.02 233.1 206.02 231.76V222.86L206.03 222.87Z" fill="black"/>
<path d="M269.66 178.53V194.65H270C271.12 191.96 272.63 189.47 274.53 187.18C276.43 184.89 278.61 182.93 281.08 181.3C283.54 179.68 286.17 178.42 288.97 177.52C291.77 176.62 294.68 176.18 297.7 176.18C299.27 176.18 301 176.46 302.91 177.02V199.19C301.79 198.97 300.45 198.77 298.88 198.6C297.31 198.43 295.8 198.35 294.35 198.35C289.98 198.35 286.29 199.08 283.27 200.53C280.25 201.99 277.81 203.97 275.97 206.49C274.12 209.01 272.81 211.95 272.02 215.31C271.24 218.67 270.84 222.31 270.84 226.22V265.35H246.99V178.54H269.66V178.53Z" fill="black"/>
<path d="M339.69 145.45V209.76L369.75 178.53H397.96L365.21 210.44L401.65 265.35H372.77L348.93 226.56L339.69 235.46V265.35H315.84V145.45H339.69Z" fill="black"/>
<path d="M435.57 244.53C439.15 248 444.3 249.74 451.02 249.74C455.83 249.74 459.98 248.54 463.45 246.13C466.92 243.72 469.05 241.18 469.83 238.49H490.82C487.46 248.9 482.31 256.35 475.37 260.82C468.43 265.3 460.03 267.54 450.18 267.54C443.35 267.54 437.19 266.45 431.71 264.27C426.22 262.09 421.58 258.98 417.77 254.95C413.96 250.92 411.02 246.11 408.95 240.51C406.88 234.91 405.84 228.76 405.84 222.04C405.84 215.32 406.9 209.5 409.03 203.9C411.15 198.3 414.18 193.46 418.1 189.37C422.02 185.29 426.69 182.07 432.12 179.71C437.55 177.36 443.57 176.18 450.17 176.18C457.56 176.18 463.99 177.61 469.48 180.46C474.96 183.31 479.47 187.15 483 191.96C486.53 196.77 489.07 202.26 490.64 208.42C492.21 214.58 492.76 221.01 492.32 227.73H429.69C430.03 235.45 431.98 241.05 435.57 244.52V244.53ZM462.52 198.85C459.67 195.72 455.32 194.15 449.51 194.15C445.7 194.15 442.54 194.8 440.02 196.08C437.5 197.37 435.49 198.96 433.97 200.87C432.46 202.77 431.39 204.79 430.78 206.91C430.16 209.04 429.8 210.94 429.69 212.62H468.48C467.36 206.57 465.37 201.99 462.52 198.85Z" fill="black"/>
<path d="M554.12 178.53V194.48H536.66V237.47C536.66 241.5 537.33 244.19 538.68 245.53C540.02 246.87 542.71 247.55 546.74 247.55C548.08 247.55 549.37 247.5 550.6 247.38C551.83 247.27 553.01 247.1 554.13 246.88V265.35C552.11 265.69 549.87 265.91 547.41 266.02C544.95 266.13 542.54 266.19 540.19 266.19C536.5 266.19 533 265.94 529.7 265.43C526.4 264.93 523.49 263.95 520.97 262.49C518.45 261.04 516.46 258.96 515.01 256.28C513.55 253.59 512.83 250.07 512.83 245.7V194.48H498.39V178.53H512.83V152.5H536.67V178.53H554.13H554.12Z" fill="black"/>
<path d="M554.12 61.87V74.84C513.94 77.05 477.49 95.46 466.61 136.71H438.87C456.3 83.36 525.23 73.24 525.23 73.24V72.02C525.23 72.02 479.12 77.93 456.35 77.93H178.6L182.48 58.78H456.35C479.11 58.78 525.23 64.69 525.23 64.69V63.47C525.23 63.47 456.3 53.35 438.87 0H466.61C477.5 41.25 513.95 59.66 554.12 61.87Z" fill="black"/>
</svg>
